<svg id="Layer_1" data-name="Layer 1" xmlns="http://www.w3.org/2000/svg" width="98.71" height="58.61" viewBox="0 0 98.71 58.61"><defs><style>.cls-1{fill:#fff;}</style></defs><title>frontend</title><path class="cls-1" d="M291.78,411a2,2,0,0,1-.68,1.55,2.61,2.61,0,0,1-1.77.61,3.56,3.56,0,0,1-1.44-.29L258.8,399.65a3.38,3.38,0,0,1-1.58-1.33,3.74,3.74,0,0,1-.57-2.05,3.43,3.43,0,0,1,.57-1.94,3.49,3.49,0,0,1,1.58-1.3l29.09-13.18a4,4,0,0,1,1.44-.36,2.56,2.56,0,0,1,1.77.62,2.06,2.06,0,0,1,.68,1.62,2,2,0,0,1-1.22,1.87l-28.37,12.74L290.56,409A2.19,2.19,0,0,1,291.78,411Z" transform="translate(-256.65 -362.72)"/><path class="cls-1" d="M298.91,420.82a2.26,2.26,0,0,1-1.44.51,2.66,2.66,0,0,1-1.8-.72,2.34,2.34,0,0,1-.79-1.8,3,3,0,0,1,.21-1l17-53.14a2.91,2.91,0,0,1,.94-1.44,2.31,2.31,0,0,1,1.44-.5,2.61,2.61,0,0,1,1.8.72,2.4,2.4,0,0,1,.79,1.87,7.15,7.15,0,0,1-.14.94l-17.07,53.13A2.79,2.79,0,0,1,298.91,420.82Z" transform="translate(-256.65 -362.72)"/><path class="cls-1" d="M354.78,394.33a3.43,3.43,0,0,1,.58,1.94,3.75,3.75,0,0,1-.58,2.05,3.42,3.42,0,0,1-1.58,1.33l-29.09,13.18a3.53,3.53,0,0,1-1.44.29,2.63,2.63,0,0,1-1.73-.61,2,2,0,0,1-.72-1.55,2.17,2.17,0,0,1,1.3-1.95l28.29-12.67L321.52,383.6a1.94,1.94,0,0,1-1.3-1.87,2.06,2.06,0,0,1,.68-1.62,2.56,2.56,0,0,1,1.77-.62,4,4,0,0,1,1.44.36L353.2,393A3.55,3.55,0,0,1,354.78,394.33Z" transform="translate(-256.65 -362.72)"/></svg>