<svg id="Layer_1" data-name="Layer 1" xmlns="http://www.w3.org/2000/svg" width="313" height="313" viewBox="0 0 313 313"><defs><style>.cls-1{fill:none;stroke:#2c3e50;stroke-miterlimit:10;stroke-width:7px;}.cls-2{fill:#2c3e50;}</style></defs><title>logo</title><circle class="cls-1" cx="156.5" cy="156.5" r="153"/><path class="cls-2" d="M375.73,296.45A4.51,4.51,0,0,1,377,299.9v34.33a9.48,9.48,0,0,1-1,5,7,7,0,0,1-3.79,2.62,61.42,61.42,0,0,1-13.38,3.73,91.52,91.52,0,0,1-15.71,1.37q-14.47,0-25-5.92a39.44,39.44,0,0,1-16.06-17.1q-5.58-11.17-5.58-26.75,0-15.3,5.51-26.47A39.63,39.63,0,0,1,317.9,253.5q10.34-6,24.26-6a52.89,52.89,0,0,1,17.92,3A38.08,38.08,0,0,1,374,259a6.88,6.88,0,0,1,2.34,4.83,5.37,5.37,0,0,1-1.1,3.37,3.33,3.33,0,0,1-2.76,1.45,6.82,6.82,0,0,1-3.86-1.65,50.86,50.86,0,0,0-13-7.65,38.39,38.39,0,0,0-13.37-2.14q-16.41,0-25.16,10.34t-8.76,29.64q0,19.73,8.9,30T343.4,337.4a67,67,0,0,0,23.3-3.86V304H346.57a5.35,5.35,0,0,1-3.72-1.25,4.41,4.41,0,0,1,0-6.41,5.56,5.56,0,0,1,3.72-1.17h25.79A4.69,4.69,0,0,1,375.73,296.45Z" transform="translate(-239.5 -149.5)"/><path class="cls-2" d="M490.31,249.51a6,6,0,0,1,1.44,4.2V341a5.74,5.74,0,0,1-1.37,4,5,5,0,0,1-3.87,1.52,4.54,4.54,0,0,1-3.72-1.52,6.08,6.08,0,0,1-1.24-4V270.53l-29.92,57.36c-1.29,2.66-3.17,4-5.65,4s-4.27-1.34-5.65-4l-30.06-56.67V341a5.9,5.9,0,0,1-1.31,4,4.74,4.74,0,0,1-3.79,1.52,5,5,0,0,1-3.86-1.52,5.7,5.7,0,0,1-1.38-4V253.71a5.78,5.78,0,0,1,1.52-4.2,5.44,5.44,0,0,1,4.13-1.59q3.45,0,5.52,4l35,67.14,34.6-67.14a8,8,0,0,1,2.42-3.1,5.32,5.32,0,0,1,3.1-.9A5.24,5.24,0,0,1,490.31,249.51Z" transform="translate(-239.5 -149.5)"/></svg>