<svg id="Layer_1" data-name="Layer 1" xmlns="http://www.w3.org/2000/svg" width="40.89" height="8.14" viewBox="0 0 40.89 8.14"><defs><style>.cls-1{fill:#fff;}</style></defs><title>other</title><path class="cls-1" d="M258,416a3.89,3.89,0,0,1-1.15-2.91,4,4,0,0,1,1.15-2.95,3.91,3.91,0,0,1,2.88-1.16,3.72,3.72,0,0,1,2.78,1.16,4.06,4.06,0,0,1,1.11,2.95,3.94,3.94,0,0,1-1.11,2.91,3.76,3.76,0,0,1-2.78,1.12A4,4,0,0,1,258,416Z" transform="translate(-256.86 -409.01)"/><path class="cls-1" d="M274.5,416a3.85,3.85,0,0,1-1.15-2.91,4,4,0,0,1,1.15-2.95,3.91,3.91,0,0,1,2.88-1.16,3.7,3.7,0,0,1,2.77,1.16,4,4,0,0,1,1.12,2.95,3.9,3.9,0,0,1-1.12,2.91,3.74,3.74,0,0,1-2.77,1.12A4,4,0,0,1,274.5,416Z" transform="translate(-256.86 -409.01)"/><path class="cls-1" d="M291,416a3.85,3.85,0,0,1-1.15-2.91,4,4,0,0,1,1.15-2.95,3.9,3.9,0,0,1,2.88-1.16,3.71,3.71,0,0,1,2.77,1.16,4.07,4.07,0,0,1,1.12,2.95,3.94,3.94,0,0,1-1.12,2.91,3.75,3.75,0,0,1-2.77,1.12A3.94,3.94,0,0,1,291,416Z" transform="translate(-256.86 -409.01)"/></svg>